<?xml version="1.0" encoding="iso-8859-1"?>
<!-- Uploaded to: SVG Repo, www.svgrepo.com, Generator: SVG Repo Mixer Tools -->
<svg version="1.1" id="Layer_1" xmlns="http://www.w3.org/2000/svg" xmlns:xlink="http://www.w3.org/1999/xlink" 
	 viewBox="0 0 512 512" xml:space="preserve">
<circle style="fill:#F4E3C3;" cx="256" cy="256" r="256"/>
<path style="fill:#FED8B2;" d="M289.568,509.809c105.129-13.771,190.171-91.322,215.033-192.54L370.845,182.456l-109.673,46.535
	L98.909,287.575l80.081,80.081c-8.825,7.59-16.487,14.2-16.932,14.643L289.568,509.809z"/>
<path style="fill:#FF6472;" d="M398.869,256c0-61.033-49.478-110.511-110.511-110.511h-63.15c-50.059,0-92.32,33.294-105.908,78.936
	h-20.39v63.15h20.39c7.215,24.231,22.509,44.98,42.76,59.116V382.3h63.15v-15.788h63.15V382.3h63.15v-35.63
	C380.128,326.699,398.869,293.547,398.869,256z"/>
<path style="fill:#C75163;" d="M288.358,145.489H257.15v221.022h31.208v15.788h63.15v-35.628
	c28.62-19.971,47.363-53.124,47.363-90.671C398.869,194.965,349.391,145.489,288.358,145.489z"/>
<circle style="fill:#324A5E;" cx="182.148" cy="219.643" r="11.481"/>
<path style="fill:#C75163;" d="M175.454,192.85v-63.148h14.034c27.126,0,49.116,21.99,49.116,49.116v14.034h-63.15V192.85z"/>
<rect x="263.137" y="162.237" style="fill:#AD3B51;" width="49.754" height="11.481"/>
</svg>