<?xml version="1.0" encoding="utf-8"?>
<!-- Generator: Adobe Illustrator 24.3.0, SVG Export Plug-In . SVG Version: 6.00 Build 0)  -->
<svg version="1.1" id="Layer_1" xmlns="http://www.w3.org/2000/svg" xmlns:xlink="http://www.w3.org/1999/xlink" x="0px" y="0px"
	 viewBox="0 0 180 180" enable-background="new 0 0 180 180" xml:space="preserve">
<g>
	<g id="XMLID_47_">
		
			<ellipse transform="matrix(0.9657 -0.2597 0.2597 0.9657 -20.2831 26.4575)" fill="#FF916E" cx="90" cy="90" rx="64.622" ry="64.622"/>
	</g>
	<g id="XMLID_240_">
		<g>
			<path fill="#FF916E" d="M76.869,68.712l-1.407,0.397c-0.47-0.882-1.086-1.66-1.833-2.322l0.714-1.277l-3.158-1.765l-0.715,1.275
				c-0.949-0.287-1.949-0.404-2.938-0.346l-0.398-1.406l-0.925,0.262l-2.556,0.723l0.397,1.407c-0.879,0.47-1.66,1.085-2.322,1.833
				l-1.275-0.714l-1.766,3.158l1.276,0.714c-0.289,0.956-0.406,1.941-0.347,2.939l-1.406,0.396l0.985,3.481l1.405-0.397
				c0.471,0.881,1.086,1.66,1.834,2.321l-0.713,1.277l3.158,1.765l0.714-1.275c0.948,0.287,1.948,0.404,2.938,0.346l0.397,1.406
				l0.926-0.262l2.557-0.722l-0.397-1.406c0.88-0.472,1.659-1.087,2.321-1.835L75.61,79.4l1.768-3.159l-1.276-0.712
				c0.29-0.955,0.405-1.942,0.345-2.939l1.408-0.397L76.869,68.712z M72.964,75.847c-0.83,1.484-2.259,2.487-3.873,2.795
				c-0.539,0.104-1.1,0.129-1.664,0.067c-0.757-0.081-1.481-0.312-2.152-0.688c-2.719-1.52-3.694-4.969-2.174-7.688
				c0.83-1.484,2.258-2.487,3.873-2.794c0.538-0.104,1.098-0.129,1.663-0.067c0.757,0.08,1.481,0.311,2.152,0.687
				C73.508,69.679,74.482,73.127,72.964,75.847z"/>
		</g>
	</g>
	<g id="XMLID_856_">
		<g>
			<path fill="#FF916E" d="M82.659,92.775l-2.329,0.659c-0.778-1.459-1.797-2.748-3.034-3.845l1.18-2.112l-5.227-2.921l-1.182,2.111
				c-1.572-0.477-3.227-0.671-4.865-0.574l-0.657-2.326l-1.53,0.433l-4.232,1.196l0.659,2.328c-1.456,0.778-2.747,1.797-3.844,3.034
				l-2.112-1.181l-2.922,5.227l2.113,1.183c-0.479,1.581-0.673,3.213-0.575,4.863l-2.327,0.658l1.632,5.763l2.326-0.658
				c0.778,1.458,1.797,2.747,3.035,3.844l-1.18,2.111l5.227,2.922l1.181-2.111c1.569,0.477,3.224,0.67,4.862,0.572l0.658,2.328
				l1.532-0.433l4.231-1.196l-0.658-2.328c1.457-0.778,2.745-1.797,3.842-3.035l2.111,1.182l2.925-5.229l-2.111-1.18
				c0.479-1.583,0.672-3.214,0.569-4.865l2.331-0.658L82.659,92.775z M76.194,104.586c-1.375,2.457-3.738,4.117-6.41,4.627
				c-0.893,0.169-1.818,0.212-2.754,0.111c-1.253-0.134-2.453-0.518-3.562-1.139c-4.5-2.517-6.115-8.225-3.6-12.727
				c1.373-2.456,3.739-4.116,6.41-4.625c0.893-0.17,1.819-0.211,2.754-0.11c1.252,0.133,2.451,0.517,3.562,1.138
				C77.097,94.377,78.709,100.085,76.194,104.586z"/>
		</g>
	</g>
	<g>
		<path fill-rule="evenodd" clip-rule="evenodd" fill="#FFFFFF" d="M55.728,69.335c0.015-2.331-1.209-4.381-3.055-5.525
			l-0.022,3.649l-0.011,1.941l-1.688,0.962l-1.688,0.961h-0.001l-1.677-0.981l-1.676-0.981l0.012-1.94l0.021-3.649
			c-1.859,1.122-3.107,3.156-3.121,5.487c-0.016,2.613,1.525,4.871,3.752,5.899l-0.092,21.525c-2.24,1.002-3.809,3.24-3.823,5.854
			c-0.014,2.331,1.21,4.381,3.056,5.525l0.021-3.649l0.012-1.942l1.688-0.961l1.688-0.962l0,0l1.678,0.982l1.675,0.982l-0.011,1.941
			l-0.023,3.648c1.859-1.123,3.107-3.157,3.123-5.489c0.016-2.612-1.525-4.871-3.753-5.898l0.093-21.525
			C54.146,74.188,55.712,71.948,55.728,69.335z"/>
	</g>
	<g>
		<g>
			
				<rect x="59.372" y="39.665" transform="matrix(1 -0.0028 0.0028 1 -0.2126 0.1784)" fill="#B5BBC1" width="8.268" height="72.4"/>
		</g>
		<g>
			<g>
				
					<rect x="65.817" y="39.655" transform="matrix(1 -0.0028 0.0028 1 -0.2125 0.1875)" fill="#B5BBC1" width="1.823" height="72.401"/>
			</g>
		</g>
		<g>
			<g>
				<polygon fill="#FFFFFF" points="65.913,109.506 65.913,109.715 67.736,109.709 67.735,109.501 				"/>
			</g>
			<g>
				<polygon fill="#FFFFFF" points="65.903,106.275 65.903,106.484 67.728,106.479 67.727,106.27 				"/>
			</g>
			<g>
				<polygon fill="#FFFFFF" points="65.894,103.045 65.894,103.254 67.718,103.249 67.718,103.04 				"/>
			</g>
			<g>
				<polygon fill="#FFFFFF" points="65.885,99.815 65.886,100.023 67.709,100.018 67.708,99.81 				"/>
			</g>
			<g>
				<polygon fill="#FFFFFF" points="65.876,96.584 65.876,96.793 67.7,96.788 67.699,96.579 				"/>
			</g>
			<g>
				<polygon fill="#FFFFFF" points="65.866,93.354 65.867,93.562 67.69,93.558 67.69,93.349 				"/>
			</g>
			<g>
				<polygon fill="#FFFFFF" points="65.857,90.122 65.858,90.331 67.682,90.326 67.681,90.117 				"/>
			</g>
			<g>
				<polygon fill="#FFFFFF" points="65.849,86.893 65.849,87.102 67.673,87.096 67.671,86.887 				"/>
			</g>
			<g>
				<polygon fill="#FFFFFF" points="65.839,83.662 65.841,83.87 67.663,83.866 67.663,83.656 				"/>
			</g>
			<g>
				<polygon fill="#FFFFFF" points="65.831,80.432 65.831,80.641 67.654,80.635 67.653,80.427 				"/>
			</g>
			<g>
				<polygon fill="#FFFFFF" points="65.821,77.201 65.821,77.41 67.646,77.405 67.646,77.195 				"/>
			</g>
			<g>
				<polygon fill="#FFFFFF" points="65.812,73.97 65.813,74.179 67.636,74.175 67.636,73.966 				"/>
			</g>
			<g>
				<polygon fill="#FFFFFF" points="65.803,70.74 65.804,70.948 67.627,70.943 67.626,70.734 				"/>
			</g>
			<g>
				<polygon fill="#FFFFFF" points="65.794,67.51 65.794,67.719 67.618,67.713 67.617,67.504 				"/>
			</g>
			<g>
				<polygon fill="#FFFFFF" points="65.784,64.279 65.785,64.487 67.608,64.482 67.608,64.273 				"/>
			</g>
			<g>
				<polygon fill="#FFFFFF" points="65.775,61.048 65.776,61.258 67.601,61.252 67.599,61.044 				"/>
			</g>
			<g>
				<polygon fill="#FFFFFF" points="65.767,57.818 65.767,58.027 67.591,58.021 67.59,57.813 				"/>
			</g>
			<g>
				<polygon fill="#FFFFFF" points="65.757,54.587 65.758,54.796 67.581,54.792 67.581,54.583 				"/>
			</g>
			<g>
				<polygon fill="#FFFFFF" points="65.748,51.357 65.749,51.565 67.573,51.561 67.571,51.352 				"/>
			</g>
			<g>
				<polygon fill="#FFFFFF" points="65.739,48.126 65.739,48.335 67.563,48.33 67.563,48.121 				"/>
			</g>
			<g>
				<polygon fill="#FFFFFF" points="65.73,44.896 65.73,45.104 67.554,45.1 67.554,44.891 				"/>
			</g>
			<g>
				<polygon fill="#FFFFFF" points="65.722,41.666 65.722,41.874 67.545,41.869 67.544,41.66 				"/>
			</g>
		</g>
	</g>
	<g id="XMLID_698_">
		<g>
			<path fill="#FF916E" d="M125.94,57.399l1.174-0.945l-1.998-2.479l-1.174,0.948c-0.91-0.78-1.984-1.379-3.177-1.732l0.161-1.5
				l-3.164-0.34l-0.16,1.5c-0.326,0.024-0.647,0.068-0.963,0.128c-0.889,0.168-1.732,0.473-2.509,0.893l-0.948-1.173l-2.477,1.997
				l0.947,1.174c-0.78,0.909-1.377,1.984-1.732,3.176l-1.5-0.16l-0.338,3.164l1.5,0.16c0.094,1.24,0.449,2.419,1.02,3.472
				l-1.174,0.947l1.998,2.477l1.174-0.947c0.909,0.78,1.984,1.379,3.176,1.731l-0.16,1.501l3.164,0.34l0.16-1.501
				c0.326-0.024,0.648-0.067,0.965-0.128c0.887-0.167,1.73-0.472,2.506-0.893l0.947,1.174l2.477-1.996l-0.945-1.175
				c0.779-0.909,1.377-1.985,1.732-3.178l1.5,0.161l0.338-3.164l-1.5-0.16C126.865,59.631,126.51,58.452,125.94,57.399z
				 M124.671,62.226c-0.311,2.887-2.483,5.121-5.193,5.638c-0.608,0.115-1.244,0.145-1.892,0.076
				c-3.533-0.378-6.091-3.551-5.713-7.083c0.309-2.888,2.481-5.123,5.192-5.639c0.608-0.116,1.244-0.144,1.891-0.075
				C122.49,55.521,125.048,58.691,124.671,62.226z"/>
		</g>
	</g>
	<g id="XMLID_693_">
		<g>
			<path fill="#FF916E" d="M135.346,72.063l-0.993,0.28c-0.331-0.622-0.766-1.171-1.293-1.639l0.504-0.9l-2.228-1.245l-0.504,0.9
				c-0.67-0.203-1.375-0.285-2.073-0.245l-0.28-0.991l-0.652,0.185l-1.805,0.51l0.281,0.992c-0.621,0.332-1.172,0.766-1.639,1.293
				l-0.899-0.502l-1.246,2.228l0.901,0.503c-0.205,0.675-0.287,1.37-0.246,2.073l-0.991,0.281l0.695,2.456l0.991-0.281
				c0.332,0.622,0.766,1.172,1.295,1.639l-0.504,0.9l2.229,1.246l0.502-0.901c0.67,0.203,1.375,0.286,2.074,0.244l0.28,0.993
				l0.653-0.185l1.803-0.509l-0.279-0.993c0.62-0.332,1.17-0.766,1.637-1.294l0.9,0.504l1.246-2.229l-0.9-0.502
				c0.204-0.676,0.287-1.371,0.244-2.074l0.993-0.281L135.346,72.063z M132.591,77.097c-0.586,1.047-1.594,1.755-2.732,1.972
				c-0.381,0.073-0.775,0.091-1.174,0.048c-0.534-0.058-1.046-0.222-1.52-0.485c-1.918-1.072-2.605-3.506-1.533-5.425
				c0.585-1.047,1.594-1.755,2.732-1.972c0.38-0.072,0.775-0.09,1.174-0.047c0.533,0.057,1.045,0.221,1.518,0.484
				C132.976,72.745,133.661,75.178,132.591,77.097z"/>
		</g>
	</g>
	<g id="XMLID_789_">
		<g id="XMLID_790_">
			<g id="XMLID_803_">
				<path fill-rule="evenodd" clip-rule="evenodd" fill="#FFFFFF" d="M106.115,44.42H79.89c-5.08,0-9.234,4.155-9.234,9.234v69.63
					c0,5.08,4.154,9.234,9.234,9.234h26.226c5.079,0,9.235-4.154,9.235-9.234v-69.63C115.351,48.575,111.194,44.42,106.115,44.42z"
					/>
			</g>
			<g id="XMLID_797_">
				<path fill-rule="evenodd" clip-rule="evenodd" fill="#B5BBC1" d="M111.29,51.808H74.715c-0.071,0-0.129,0.059-0.129,0.129
					v72.326c0,0.071,0.058,0.13,0.129,0.13h36.575c0.07,0,0.129-0.059,0.129-0.13V51.937
					C111.419,51.866,111.36,51.808,111.29,51.808z"/>
			</g>
			<g id="XMLID_795_">
				<path fill-rule="evenodd" clip-rule="evenodd" fill="#333333" d="M99.778,46.6H86.227c-0.368,0-0.667,0.3-0.667,0.668l0,0
					c0,0.367,0.299,0.668,0.667,0.668h13.552c0.367,0,0.668-0.301,0.668-0.668l0,0C100.446,46.899,100.146,46.6,99.778,46.6z"/>
			</g>
			<g id="XMLID_791_">
				<path fill-rule="evenodd" clip-rule="evenodd" fill="#B5BBC1" d="M93.003,126.071c-1.244,0-2.258,1.014-2.258,2.259
					c0,1.243,1.014,2.258,2.258,2.258c1.243,0,2.258-1.015,2.258-2.258C95.261,127.085,94.246,126.071,93.003,126.071z"/>
			</g>
		</g>
	</g>
	<g id="XMLID_780_">
		<g id="XMLID_787_">
			<path fill-rule="evenodd" clip-rule="evenodd" fill="#FFFFFF" d="M93.003,56.156c-6.334,0-11.47,5.135-11.47,11.47
				c0,6.334,5.136,11.47,11.47,11.47s11.469-5.136,11.469-11.47C104.472,61.291,99.337,56.156,93.003,56.156z"/>
		</g>
		<g id="XMLID_781_">
			<g id="XMLID_784_">
				<path fill-rule="evenodd" clip-rule="evenodd" fill="#E1E5EA" d="M93.003,68.489c-1.856,0-3.574,0.341-4.984,0.918
					c-0.934,1.123-1.496,2.564-1.496,4.135c0,0.012,0.001,0.025,0.002,0.036h12.957c0-0.012,0.001-0.024,0.001-0.036
					c0-1.57-0.561-3.012-1.495-4.135C96.577,68.83,94.858,68.489,93.003,68.489z"/>
			</g>
			<g id="XMLID_782_">
				<path fill-rule="evenodd" clip-rule="evenodd" fill="#E1E5EA" d="M93.003,61.674c-1.724,0-3.121,1.396-3.121,3.12
					c0,1.723,1.397,3.12,3.121,3.12c1.723,0,3.12-1.397,3.12-3.12C96.123,63.07,94.726,61.674,93.003,61.674z"/>
			</g>
		</g>
	</g>
	<g id="XMLID_701_">
		<g id="XMLID_765_">
			<path fill-rule="evenodd" clip-rule="evenodd" fill="#333333" d="M87.263,115.157H45.664c-1.267,0-2.304,1.037-2.304,2.305
				v23.255c0,1.267,1.037,2.303,2.304,2.303h41.599c1.268,0,2.305-1.036,2.305-2.303v-23.255
				C89.567,116.194,88.53,115.157,87.263,115.157z"/>
		</g>
		<g id="XMLID_710_">
			<g id="XMLID_763_">
				<rect x="48.171" y="133.284" fill-rule="evenodd" clip-rule="evenodd" fill="#B5BBC1" width="36.586" height="1.189"/>
			</g>
			<g id="XMLID_759_">
				<rect x="48.171" y="133.284" fill-rule="evenodd" clip-rule="evenodd" fill="#515056" width="19.873" height="1.189"/>
			</g>
			<g id="XMLID_758_">
				<rect x="53.962" y="132.292" fill-rule="evenodd" clip-rule="evenodd" fill="#FFFFFF" width="1.111" height="3.172"/>
			</g>
			<g id="XMLID_757_">
				<path fill-rule="evenodd" clip-rule="evenodd" fill="#FFFFFF" d="M71.048,117.36l-11.154,0.653
					c-1.582,0-2.875,1.294-2.875,2.875v4.79c0,1.581,1.293,2.874,2.875,2.874l11.154,0.654c1.58,0,2.873-1.454,2.873-3.232v-5.384
					C73.921,118.814,72.628,117.36,71.048,117.36z"/>
			</g>
			<g id="XMLID_753_">
				<polygon fill-rule="evenodd" clip-rule="evenodd" fill="#FF916E" points="62.909,126.365 68.032,123.282 62.909,120.201 				"/>
			</g>
			<g id="XMLID_741_">
				<polygon fill-rule="evenodd" clip-rule="evenodd" fill="#FFFFFF" points="82.835,136.898 83.509,136.898 83.509,137.6 
					84.044,137.6 84.044,136.417 82.835,136.417 				"/>
				<polygon fill-rule="evenodd" clip-rule="evenodd" fill="#FFFFFF" points="80.222,138.155 79.688,138.155 79.688,139.339 
					80.899,139.339 80.899,138.857 80.222,138.857 				"/>
				<polygon fill-rule="evenodd" clip-rule="evenodd" fill="#FFFFFF" points="79.688,137.6 80.222,137.6 80.222,136.898 
					80.899,136.898 80.899,136.417 79.688,136.417 				"/>
				<polygon fill-rule="evenodd" clip-rule="evenodd" fill="#FFFFFF" points="83.509,138.857 82.835,138.857 82.835,139.339 
					84.044,139.339 84.044,138.155 83.509,138.155 				"/>
			</g>
			<g id="XMLID_727_">
				<g id="XMLID_737_">
					<polygon fill-rule="evenodd" clip-rule="evenodd" fill="#FFFFFF" points="65.839,137.192 65.839,138.562 66.647,138.562 
						68.065,139.224 68.065,136.529 66.647,137.192 					"/>
				</g>
				<g id="XMLID_736_">
					<path fill="#FFFFFF" d="M68.655,136.439l-0.08,0.199c0.352,0.141,0.582,0.422,0.697,0.747c0.06,0.17,0.088,0.354,0.084,0.536
						c-0.004,0.181-0.039,0.36-0.105,0.525c-0.121,0.302-0.346,0.552-0.67,0.666l0.07,0.202c0.389-0.137,0.656-0.433,0.799-0.787
						c0.076-0.189,0.116-0.395,0.12-0.602c0.005-0.209-0.027-0.418-0.095-0.611C69.341,136.935,69.069,136.605,68.655,136.439z"/>
				</g>
				<g id="XMLID_733_">
					<path fill="#FFFFFF" d="M68.671,136.912l-0.111,0.183c0.1,0.061,0.182,0.147,0.244,0.249l0,0
						c0.094,0.151,0.146,0.336,0.151,0.523c0.004,0.185-0.039,0.373-0.136,0.53c-0.062,0.103-0.149,0.193-0.26,0.262l0.113,0.184
						c0.141-0.088,0.25-0.203,0.33-0.334c0.117-0.193,0.171-0.421,0.166-0.646c-0.006-0.224-0.068-0.447-0.183-0.63
						C68.906,137.102,68.8,136.991,68.671,136.912z"/>
				</g>
			</g>
			<g id="XMLID_725_">
				<path fill="#FFFFFF" d="M53.056,137.33c-0.459,0-0.674,0.405-0.674,0.921c0.002,0.502,0.205,0.915,0.662,0.915
					c0.451,0,0.672-0.38,0.672-0.927C53.716,137.754,53.528,137.33,53.056,137.33z M53.053,138.852
					c-0.159,0-0.257-0.194-0.257-0.601c0-0.415,0.103-0.605,0.254-0.605c0.167,0,0.252,0.207,0.252,0.6
					C53.302,138.65,53.214,138.852,53.053,138.852z"/>
				<path fill="#FFFFFF" d="M54.188,138.665c-0.142,0-0.242,0.105-0.242,0.252c0,0.142,0.098,0.249,0.24,0.249
					c0.149,0,0.245-0.107,0.245-0.249C54.429,138.767,54.334,138.665,54.188,138.665z"/>
				<path fill="#FFFFFF" d="M54.188,137.784c-0.142,0-0.242,0.104-0.242,0.251c0,0.143,0.098,0.248,0.24,0.248
					c0.149,0,0.245-0.105,0.245-0.248C54.429,137.885,54.334,137.784,54.188,137.784z"/>
				<path fill="#FFFFFF" d="M55.281,137.33c-0.459,0-0.675,0.405-0.675,0.921c0.003,0.502,0.205,0.915,0.664,0.915
					c0.449,0,0.671-0.38,0.671-0.927C55.941,137.754,55.753,137.33,55.281,137.33z M55.278,138.852
					c-0.158,0-0.257-0.194-0.257-0.601c0-0.415,0.104-0.605,0.254-0.605c0.167,0,0.251,0.207,0.251,0.6
					C55.526,138.65,55.438,138.852,55.278,138.852z"/>
				<path fill="#FFFFFF" d="M56.796,137.33c-0.458,0-0.674,0.405-0.674,0.921c0.003,0.502,0.205,0.915,0.663,0.915
					c0.451,0,0.673-0.38,0.673-0.927C57.458,137.754,57.269,137.33,56.796,137.33z M56.794,138.852
					c-0.158,0-0.256-0.194-0.256-0.601c0-0.415,0.103-0.605,0.252-0.605c0.168,0,0.252,0.207,0.252,0.6
					C57.042,138.65,56.955,138.852,56.794,138.852z"/>
				<polygon fill="#FFFFFF" points="57.591,139.242 57.866,139.242 58.451,137.263 58.175,137.263 				"/>
				<path fill="#FFFFFF" d="M59.423,138.19v-0.005c0.219-0.073,0.325-0.225,0.325-0.413c0-0.243-0.21-0.442-0.587-0.442
					c-0.232,0-0.442,0.066-0.549,0.135l0.085,0.3c0.07-0.044,0.224-0.106,0.368-0.106c0.178,0,0.262,0.08,0.262,0.186
					c0,0.15-0.174,0.205-0.313,0.205H58.85v0.298h0.169c0.184,0,0.357,0.078,0.357,0.257c0,0.131-0.108,0.234-0.324,0.234
					c-0.17,0-0.338-0.067-0.412-0.109l-0.085,0.314c0.104,0.062,0.298,0.123,0.526,0.123c0.451,0,0.727-0.23,0.727-0.541
					C59.808,138.391,59.636,138.229,59.423,138.19z"/>
				<path fill="#FFFFFF" d="M60.349,138.665c-0.143,0-0.243,0.105-0.243,0.252c0,0.142,0.099,0.249,0.241,0.249
					c0.15,0,0.245-0.107,0.245-0.249C60.589,138.767,60.493,138.665,60.349,138.665z"/>
				<path fill="#FFFFFF" d="M60.349,137.784c-0.143,0-0.243,0.104-0.243,0.251c0,0.143,0.099,0.248,0.241,0.248
					c0.15,0,0.245-0.105,0.245-0.248C60.589,137.885,60.493,137.784,60.349,137.784z"/>
				<polygon fill="#FFFFFF" points="60.909,137.579 60.978,137.89 61.315,137.729 61.321,137.729 61.321,139.136 61.722,139.136 
					61.722,137.36 61.381,137.36 				"/>
				<path fill="#FFFFFF" d="M63.435,137.36h-0.511l-0.669,1.082v0.27h0.787v0.424h0.393v-0.424h0.21v-0.311h-0.21V137.36z
					 M63.042,138.008v0.394H62.64l0.003-0.006l0.235-0.388c0.06-0.111,0.108-0.216,0.166-0.33h0.008
					C63.046,137.792,63.042,137.901,63.042,138.008z"/>
			</g>
			<g id="XMLID_717_">
				<polygon fill-rule="evenodd" clip-rule="evenodd" fill="#FFFFFF" points="48.171,139.231 50.421,137.878 48.171,136.523 				"/>
			</g>
		</g>
	</g>
	<g>
		<g id="XMLID_774_">
			<g id="XMLID_779_">
				<rect x="77.804" y="83.672" fill-rule="evenodd" clip-rule="evenodd" fill="#E1E5EA" width="23.438" height="5.265"/>
			</g>
			<g id="XMLID_778_">
				<rect x="78.419" y="84.286" fill-rule="evenodd" clip-rule="evenodd" fill="#FFFFFF" width="22.209" height="4.036"/>
			</g>
			<g id="XMLID_777_">
				<rect x="101.65" y="83.672" fill-rule="evenodd" clip-rule="evenodd" fill="#E1E5EA" width="6.55" height="5.265"/>
			</g>
			<g id="XMLID_775_">
				<rect x="102.265" y="84.286" fill-rule="evenodd" clip-rule="evenodd" fill="#105BB4" width="5.322" height="4.036"/>
			</g>
		</g>
		<g id="XMLID_767_">
			<g id="XMLID_770_">
				<g id="XMLID_771_">
					<path fill="#FFFFFF" d="M104.353,84.583c-0.691,0.065-1.2,0.681-1.135,1.372c0.066,0.691,0.682,1.2,1.373,1.135
						c0.691-0.066,1.201-0.682,1.135-1.373C105.659,85.025,105.044,84.517,104.353,84.583z M104.544,86.597
						c-0.419,0.04-0.793-0.27-0.832-0.688c-0.041-0.42,0.268-0.794,0.687-0.833c0.42-0.04,0.793,0.268,0.833,0.688
						C105.272,86.183,104.964,86.557,104.544,86.597z"/>
				</g>
			</g>
			<g id="XMLID_768_">
				<g id="XMLID_769_">
					<path fill="#FFFFFF" d="M105.445,86.469c-0.097-0.098-0.253-0.1-0.351-0.004c-0.098,0.096-0.1,0.252-0.004,0.351l1.123,1.143
						c0.096,0.097,0.253,0.099,0.351,0.003c0.056-0.054,0.081-0.128,0.073-0.2c-0.005-0.055-0.028-0.106-0.07-0.15L105.445,86.469z"
						/>
				</g>
			</g>
		</g>
		<g id="XMLID_407_">
			<g id="XMLID_424_">
				<path fill-rule="evenodd" clip-rule="evenodd" fill="#FFFFFF" d="M97.962,107.134c0-0.356,0.289-0.646,0.646-0.646v-0.124
					c-3.737-0.006-7.475-0.006-11.212,0v0.124c0.357,0,0.646,0.29,0.646,0.646c0,0.357-0.289,0.647-0.646,0.647v0.127h11.212v-0.127
					C98.251,107.781,97.962,107.491,97.962,107.134z"/>
				<path fill-rule="evenodd" clip-rule="evenodd" fill="#FFFFFF" d="M99.083,106.364l-0.475-0.001v0.124
					c0.357,0,0.647,0.29,0.647,0.646c0,0.357-0.289,0.647-0.647,0.647v0.127h0.475C100.444,107.908,100.503,106.366,99.083,106.364z
					"/>
				<path fill-rule="evenodd" clip-rule="evenodd" fill="#FFFFFF" d="M86.749,107.134c0-0.356,0.291-0.646,0.648-0.646v-0.124
					l-0.474,0.001c-1.42,0.002-1.362,1.544,0,1.544h0.474v-0.127C87.04,107.781,86.749,107.491,86.749,107.134z"/>
			</g>
			<g id="XMLID_419_">
				<path fill-rule="evenodd" clip-rule="evenodd" fill="#FFFFFF" d="M93.861,101.098c-0.357,0-0.647,0.29-0.647,0.647
					s0.29,0.646,0.647,0.646c0.357,0,0.646-0.289,0.646-0.646S94.219,101.098,93.861,101.098z"/>
			</g>
			<g id="XMLID_417_">
				<path fill-rule="evenodd" clip-rule="evenodd" fill="#FFFFFF" d="M94.445,102.024c-0.103-0.113-0.278-0.124-0.394-0.022
					c-0.113,0.102-0.123,0.279-0.021,0.394l4.414,4.938c0.103,0.113,0.279,0.124,0.394,0.021c0.114-0.102,0.124-0.278,0.022-0.392
					L94.445,102.024z"/>
			</g>
			<g id="XMLID_416_">
				<path fill-rule="evenodd" clip-rule="evenodd" fill="#FFFFFF" d="M92.144,101.098c-0.357,0-0.647,0.29-0.647,0.647
					s0.29,0.646,0.647,0.646c0.357,0,0.646-0.289,0.646-0.646S92.501,101.098,92.144,101.098z"/>
			</g>
			<g id="XMLID_415_">
				<path fill-rule="evenodd" clip-rule="evenodd" fill="#FFFFFF" d="M91.96,101.576l-4.814,5.386
					c-0.102,0.114-0.092,0.29,0.022,0.392c0.114,0.103,0.291,0.092,0.392-0.021l4.814-5.386c0.104-0.114,0.094-0.291-0.021-0.393
					C92.239,101.453,92.063,101.462,91.96,101.576z"/>
			</g>
			<g id="XMLID_408_">
				<path fill-rule="evenodd" clip-rule="evenodd" fill="#FFFFFF" d="M94.762,112.089c-0.255,0-0.454-0.214-0.442-0.476
					c0.018-0.389,0.035-0.777,0.053-1.167c0.016-0.388,0.035-0.777,0.052-1.166c0.011-0.236,0.21-0.434,0.456-0.469v-0.442h-1.879
					v0.436l0,0c0.285,0,0.512,0.213,0.508,0.476c-0.006,0.389-0.012,0.778-0.019,1.166c-0.006,0.39-0.012,0.778-0.019,1.167
					c-0.004,0.262-0.215,0.476-0.471,0.476v0.975h1.879v-0.989C94.842,112.083,94.802,112.089,94.762,112.089z"/>
				<path fill-rule="evenodd" clip-rule="evenodd" fill="#FFFFFF" d="M96.523,112.089c-0.256,0-0.442-0.214-0.415-0.476
					c0.041-0.389,0.083-0.777,0.123-1.167c0.041-0.388,0.084-0.777,0.124-1.166c0.021-0.204,0.181-0.379,0.386-0.446v-0.465H94.88
					v0.442c0.027-0.005,0.055-0.007,0.083-0.007c0.283,0,0.497,0.213,0.477,0.476c-0.029,0.389-0.06,0.778-0.09,1.166
					c-0.029,0.39-0.059,0.778-0.09,1.167c-0.016,0.221-0.178,0.406-0.381,0.461v0.989h1.861v-1.027
					C96.674,112.07,96.599,112.089,96.523,112.089z"/>
				<path fill-rule="evenodd" clip-rule="evenodd" fill="#FFFFFF" d="M96.741,108.834c0.059-0.018,0.119-0.029,0.182-0.029
					c0.283,0,0.486,0.214,0.45,0.476c-0.054,0.389-0.106,0.778-0.16,1.166c-0.054,0.39-0.108,0.778-0.161,1.167
					c-0.025,0.184-0.149,0.345-0.311,0.423v1.027h0.056c1.128,0,1.485-0.552,1.613-1.286l0.593-3.408h-2.262V108.834z"/>
				<path fill-rule="evenodd" clip-rule="evenodd" fill="#FFFFFF" d="M93.001,112.089c-0.254,0-0.467-0.214-0.471-0.476
					c-0.008-0.389-0.012-0.777-0.019-1.167c-0.007-0.388-0.012-0.777-0.019-1.166c-0.004-0.262,0.225-0.476,0.508-0.476v-0.436
					h-1.88v0.441c0.248,0.034,0.446,0.233,0.456,0.47c0.018,0.389,0.035,0.778,0.053,1.166c0.017,0.39,0.035,0.778,0.053,1.167
					c0.012,0.262-0.188,0.476-0.442,0.476c-0.04,0-0.081-0.006-0.119-0.015v0.989h1.88V112.089L93.001,112.089z"/>
				<path fill-rule="evenodd" clip-rule="evenodd" fill="#FFFFFF" d="M90.739,111.613c-0.029-0.389-0.059-0.777-0.088-1.167
					c-0.03-0.388-0.061-0.777-0.09-1.166c-0.02-0.262,0.195-0.476,0.48-0.476c0.027,0,0.053,0.002,0.079,0.006v-0.441h-1.86v0.465
					c0.205,0.066,0.365,0.241,0.386,0.446c0.041,0.389,0.082,0.778,0.124,1.166c0.041,0.39,0.081,0.778,0.122,1.167
					c0.027,0.262-0.158,0.476-0.413,0.476c-0.076,0-0.15-0.019-0.219-0.053v1.027h1.86v-0.989
					C90.919,112.02,90.757,111.834,90.739,111.613z"/>
				<path fill-rule="evenodd" clip-rule="evenodd" fill="#FFFFFF" d="M88.951,111.613c-0.054-0.389-0.106-0.777-0.16-1.167
					c-0.054-0.388-0.107-0.777-0.161-1.166c-0.035-0.262,0.168-0.476,0.451-0.476c0.062,0,0.123,0.011,0.18,0.029v-0.465h-2.258
					l0.591,3.408c0.128,0.734,0.487,1.286,1.614,1.286h0.053v-1.027C89.101,111.958,88.976,111.797,88.951,111.613z"/>
			</g>
		</g>
		<g id="XMLID_45_">
			<g id="XMLID_82_">
				<g id="XMLID_243_" opacity="0.5">
					<g>
						<path fill-rule="evenodd" clip-rule="evenodd" fill="#FFDB76" d="M81.085,92.28c-1.713,0-3.102,1.389-3.102,3.102
							s1.389,3.101,3.102,3.101c1.713,0,3.102-1.388,3.102-3.101S82.798,92.28,81.085,92.28z"/>
					</g>
				</g>
				<g id="XMLID_236_">
					<path fill-rule="evenodd" clip-rule="evenodd" fill="#FF916E" d="M89.634,92.28c-1.713,0-3.102,1.389-3.102,3.102
						s1.389,3.101,3.102,3.101c1.713,0,3.102-1.388,3.102-3.101S91.347,92.28,89.634,92.28z"/>
				</g>
				<g id="XMLID_102_">
					<path fill-rule="evenodd" clip-rule="evenodd" fill="#ADEBF6" d="M98.184,92.28c-1.712,0-3.103,1.389-3.103,3.102
						s1.391,3.101,3.103,3.101c1.713,0,3.101-1.388,3.101-3.101S99.897,92.28,98.184,92.28z"/>
				</g>
			</g>
			<g id="XMLID_80_">
				<path fill-rule="evenodd" clip-rule="evenodd" fill="#FFFFFF" d="M106.935,92.529c-0.156-0.522-0.916-0.715-1.182-0.211
					c-0.058-0.588-0.842-0.857-1.163-0.409l0.015-3.266c0-0.998-1.26-1.009-1.26-0.033l-0.006,4.616
					c-0.418-0.656-1.221-0.591-1.176-0.349c0,0,1.133,4.25,1.543,4.561c1.092,1.513,4.229,1.713,4.275-1.658l0.039-2.771
					C108.03,92.405,107.257,92.105,106.935,92.529z"/>
			</g>
		</g>
	</g>
	<g>
		<rect x="109.04" y="76.801" fill-rule="evenodd" clip-rule="evenodd" fill="#FFFFFF" width="31.6" height="41.272"/>
	</g>
	<g>
		<rect x="109.04" y="76.801" fill-rule="evenodd" clip-rule="evenodd" fill="#333333" width="31.6" height="4.62"/>
	</g>
	<g>
		<rect x="110.94" y="81.362" fill-rule="evenodd" clip-rule="evenodd" fill="#FF916E" width="27.799" height="1.549"/>
	</g>
	<g>
		<rect x="110.94" y="111.322" fill-rule="evenodd" clip-rule="evenodd" fill="#FF916E" width="27.799" height="1.549"/>
	</g>
	<g>
		<rect x="109.04" y="112.871" fill-rule="evenodd" clip-rule="evenodd" fill="#333333" width="31.6" height="5.202"/>
	</g>
	<g id="XMLID_124_">
		<g id="XMLID_808_">
			<path fill-rule="evenodd" clip-rule="evenodd" fill="#B5BBC1" d="M125.421,84.286c-3.345,0-6.059,2.713-6.059,6.059
				c0,3.347,2.714,6.058,6.059,6.058c3.347,0,6.059-2.711,6.059-6.058C131.48,86.999,128.768,84.286,125.421,84.286z"/>
		</g>
		<g id="XMLID_800_">
			<g id="XMLID_806_">
				<path fill-rule="evenodd" clip-rule="evenodd" fill="#E1E5EA" d="M125.421,90.801c-0.981,0-1.887,0.18-2.632,0.486
					c-0.493,0.592-0.79,1.354-0.79,2.183c0,0.007,0,0.013,0,0.02h6.845c0-0.007,0.001-0.013,0.001-0.02
					c0-0.829-0.297-1.591-0.791-2.183C127.31,90.98,126.401,90.801,125.421,90.801z"/>
			</g>
			<g id="XMLID_804_">
				<path fill-rule="evenodd" clip-rule="evenodd" fill="#E1E5EA" d="M125.421,87.2c-0.91,0-1.649,0.738-1.649,1.649
					c0,0.91,0.738,1.647,1.649,1.647c0.91,0,1.648-0.737,1.648-1.647C127.069,87.938,126.331,87.2,125.421,87.2z"/>
			</g>
		</g>
	</g>
	<g>
		<g id="XMLID_811_">
			<rect x="113.122" y="98.466" fill-rule="evenodd" clip-rule="evenodd" fill="#E1E5EA" width="23.437" height="4.649"/>
		</g>
		<g id="XMLID_805_">
			<rect x="113.736" y="99.009" fill-rule="evenodd" clip-rule="evenodd" fill="#FFFFFF" width="22.208" height="3.565"/>
		</g>
		<g>
			<path fill-rule="evenodd" clip-rule="evenodd" fill="#333333" d="M116.307,100.173c-0.341,0-0.617,0.277-0.617,0.617
				c0,0.341,0.276,0.619,0.617,0.619s0.618-0.278,0.618-0.619C116.925,100.45,116.647,100.173,116.307,100.173z"/>
		</g>
		<g>
			<path fill-rule="evenodd" clip-rule="evenodd" fill="#333333" d="M118.431,100.173c-0.341,0-0.617,0.277-0.617,0.617
				c0,0.341,0.276,0.619,0.617,0.619c0.342,0,0.617-0.278,0.617-0.619C119.048,100.45,118.772,100.173,118.431,100.173z"/>
		</g>
		<g>
			<path fill-rule="evenodd" clip-rule="evenodd" fill="#333333" d="M120.556,100.173c-0.342,0-0.618,0.277-0.618,0.617
				c0,0.341,0.276,0.619,0.618,0.619c0.341,0,0.617-0.278,0.617-0.619C121.173,100.45,120.897,100.173,120.556,100.173z"/>
		</g>
		<g>
			<path fill-rule="evenodd" clip-rule="evenodd" fill="#333333" d="M124.803,100.173c-0.341,0-0.617,0.277-0.617,0.617
				c0,0.341,0.276,0.619,0.617,0.619c0.341,0,0.618-0.278,0.618-0.619C125.421,100.45,125.144,100.173,124.803,100.173z"/>
		</g>
		<g>
			<path fill-rule="evenodd" clip-rule="evenodd" fill="#333333" d="M122.679,100.173c-0.341,0-0.617,0.277-0.617,0.617
				c0,0.341,0.276,0.619,0.617,0.619c0.342,0,0.618-0.278,0.618-0.619C123.297,100.45,123.021,100.173,122.679,100.173z"/>
		</g>
	</g>
	<g>
		<g id="XMLID_833_">
			<rect x="113.122" y="104.811" fill-rule="evenodd" clip-rule="evenodd" fill="#E1E5EA" width="23.437" height="4.65"/>
		</g>
		<g id="XMLID_812_">
			<rect x="113.736" y="105.354" fill-rule="evenodd" clip-rule="evenodd" fill="#FFFFFF" width="22.208" height="3.565"/>
		</g>
		<g>
			<path fill-rule="evenodd" clip-rule="evenodd" fill="#333333" d="M116.307,106.52c-0.341,0-0.617,0.275-0.617,0.616
				c0,0.342,0.276,0.618,0.617,0.618s0.618-0.276,0.618-0.618C116.925,106.795,116.647,106.52,116.307,106.52z"/>
		</g>
		<g>
			<path fill-rule="evenodd" clip-rule="evenodd" fill="#333333" d="M118.431,106.52c-0.341,0-0.617,0.275-0.617,0.616
				c0,0.342,0.276,0.618,0.617,0.618c0.342,0,0.617-0.276,0.617-0.618C119.048,106.795,118.772,106.52,118.431,106.52z"/>
		</g>
		<g>
			<path fill-rule="evenodd" clip-rule="evenodd" fill="#333333" d="M120.556,106.52c-0.342,0-0.618,0.275-0.618,0.616
				c0,0.342,0.276,0.618,0.618,0.618c0.341,0,0.617-0.276,0.617-0.618C121.173,106.795,120.897,106.52,120.556,106.52z"/>
		</g>
		<g>
			<path fill-rule="evenodd" clip-rule="evenodd" fill="#333333" d="M124.803,106.52c-0.341,0-0.617,0.275-0.617,0.616
				c0,0.342,0.276,0.618,0.617,0.618c0.341,0,0.618-0.276,0.618-0.618C125.421,106.795,125.144,106.52,124.803,106.52z"/>
		</g>
		<g>
			<path fill-rule="evenodd" clip-rule="evenodd" fill="#333333" d="M122.679,106.52c-0.341,0-0.617,0.275-0.617,0.616
				c0,0.342,0.276,0.618,0.617,0.618c0.342,0,0.618-0.276,0.618-0.618C123.297,106.795,123.021,106.52,122.679,106.52z"/>
		</g>
		<g>
			<path fill-rule="evenodd" clip-rule="evenodd" fill="#333333" d="M126.927,106.52c-0.34,0-0.617,0.275-0.617,0.616
				c0,0.342,0.277,0.618,0.617,0.618c0.342,0,0.618-0.276,0.618-0.618C127.545,106.795,127.269,106.52,126.927,106.52z"/>
		</g>
		<g>
			<path fill-rule="evenodd" clip-rule="evenodd" fill="#333333" d="M129.089,106.52c-0.342,0-0.617,0.275-0.617,0.616
				c0,0.342,0.275,0.618,0.617,0.618c0.341,0,0.617-0.276,0.617-0.618C129.706,106.795,129.43,106.52,129.089,106.52z"/>
		</g>
	</g>
	<g>
		<g>
			<g>
				<path fill="#333333" d="M106.13,139.776h-9.659c-0.212,0-0.384,0.171-0.384,0.384c0,0.212,0.172,0.384,0.384,0.384h9.659
					c0.212,0,0.384-0.172,0.384-0.384C106.514,139.947,106.342,139.776,106.13,139.776z"/>
			</g>
			<g>
				<path fill="#333333" d="M109.487,137.146h-1.561c-0.211,0-0.384,0.172-0.384,0.384c0,0.212,0.173,0.384,0.384,0.384h1.561
					c0.212,0,0.384-0.172,0.384-0.384C109.871,137.317,109.699,137.146,109.487,137.146z"/>
			</g>
			<g>
				<path fill="#333333" d="M111.346,143.208h-1.56c-0.212,0-0.384,0.172-0.384,0.385c0,0.212,0.172,0.383,0.384,0.383h1.56
					c0.212,0,0.384-0.171,0.384-0.383C111.73,143.38,111.558,143.208,111.346,143.208z"/>
			</g>
			<g>
				<path fill="#333333" d="M106.13,137.146h-5.882c-0.212,0-0.384,0.172-0.384,0.384c0,0.212,0.172,0.384,0.384,0.384h5.882
					c0.212,0,0.384-0.172,0.384-0.384C106.514,137.317,106.342,137.146,106.13,137.146z"/>
			</g>
			<g>
				<path fill="#333333" d="M114.897,134.471h-7.101c-0.212,0-0.385,0.172-0.385,0.385c0,0.212,0.173,0.383,0.385,0.383h7.101
					c0.212,0,0.384-0.171,0.384-0.383C115.28,134.643,115.108,134.471,114.897,134.471z"/>
			</g>
		</g>
		<g>
			<path fill="#333333" d="M126.847,124.957h-1.561c-0.211,0-0.383,0.173-0.383,0.385c0,0.211,0.172,0.383,0.383,0.383h1.561
				c0.213,0,0.384-0.172,0.384-0.383C127.23,125.13,127.06,124.957,126.847,124.957z"/>
		</g>
		<g>
			<path fill="#333333" d="M123.489,124.957h-5.882c-0.212,0-0.384,0.173-0.384,0.385c0,0.211,0.172,0.383,0.384,0.383h5.882
				c0.212,0,0.384-0.172,0.384-0.383C123.873,125.13,123.701,124.957,123.489,124.957z"/>
		</g>
		<g>
			<path fill="#333333" d="M132.255,122.282h-7.1c-0.213,0-0.385,0.173-0.385,0.385c0,0.212,0.172,0.383,0.385,0.383h7.1
				c0.213,0,0.385-0.171,0.385-0.383C132.64,122.455,132.468,122.282,132.255,122.282z"/>
		</g>
		<g>
			<g>
				<path fill="#333333" d="M118.702,140.724h-3.688c-0.213,0-0.385,0.172-0.385,0.384s0.172,0.384,0.385,0.384h3.688
					c0.213,0,0.385-0.172,0.385-0.384S118.915,140.724,118.702,140.724z"/>
			</g>
			<g>
				<path fill="#333333" d="M116.778,138.558c-0.213,0-0.385,0.172-0.385,0.384v4.17c0,0.212,0.172,0.384,0.385,0.384
					c0.212,0,0.383-0.172,0.383-0.384v-4.17C117.161,138.729,116.99,138.558,116.778,138.558z"/>
			</g>
		</g>
	</g>
	<g>
		<g>
			<path fill="#333333" d="M38.271,85.625h-5.698c-0.212,0-0.384,0.172-0.384,0.384c0,0.213,0.172,0.384,0.384,0.384h5.698
				c0.213,0,0.385-0.171,0.385-0.384C38.655,85.797,38.483,85.625,38.271,85.625z"/>
		</g>
		<g>
			<path fill="#333333" d="M40.251,82.993h-0.92c-0.211,0-0.383,0.172-0.383,0.385c0,0.212,0.172,0.384,0.383,0.384h0.92
				c0.213,0,0.385-0.172,0.385-0.384C40.636,83.165,40.464,82.993,40.251,82.993z"/>
		</g>
		<g>
			<path fill="#333333" d="M41.349,89.057h-0.921c-0.212,0-0.384,0.172-0.384,0.384s0.172,0.385,0.384,0.385h0.921
				c0.212,0,0.384-0.173,0.384-0.385S41.561,89.057,41.349,89.057z"/>
		</g>
		<g>
			<path fill="#333333" d="M38.271,82.993H34.8c-0.211,0-0.383,0.172-0.383,0.385c0,0.212,0.172,0.384,0.383,0.384h3.471
				c0.213,0,0.385-0.172,0.385-0.384C38.655,83.165,38.483,82.993,38.271,82.993z"/>
		</g>
		<g>
			<path fill="#333333" d="M43.442,80.318h-4.189c-0.211,0-0.383,0.173-0.383,0.385s0.172,0.385,0.383,0.385h4.189
				c0.213,0,0.385-0.173,0.385-0.385S43.655,80.318,43.442,80.318z"/>
		</g>
	</g>
	<g>
		<path fill="#333333" d="M93.977,39.269h-1.56c-0.213,0-0.385,0.172-0.385,0.385c0,0.212,0.172,0.383,0.385,0.383h1.56
			c0.212,0,0.384-0.171,0.384-0.383C94.36,39.44,94.188,39.269,93.977,39.269z"/>
	</g>
	<g>
		<path fill="#333333" d="M90.618,39.269h-5.881c-0.213,0-0.385,0.172-0.385,0.385c0,0.212,0.172,0.383,0.385,0.383h5.881
			c0.213,0,0.385-0.171,0.385-0.383C91.003,39.44,90.831,39.269,90.618,39.269z"/>
	</g>
	<g>
		<path fill="#333333" d="M99.386,36.594h-7.102c-0.211,0-0.383,0.173-0.383,0.385s0.172,0.384,0.383,0.384h7.102
			c0.212,0,0.383-0.172,0.383-0.384S99.598,36.594,99.386,36.594z"/>
	</g>
</g>
</svg>
